<svg id="SvgjsSvg1001" width="288" height="288" xmlns="http://www.w3.org/2000/svg" version="1.1" xmlns:xlink="http://www.w3.org/1999/xlink" xmlns:svgjs="http://svgjs.com/svgjs"><defs id="SvgjsDefs1002"></defs><g id="SvgjsG1008"><svg xmlns="http://www.w3.org/2000/svg" fill="none" viewBox="0 0 24 24" width="288" height="288"><path stroke="#f6ff54" stroke-linecap="round" stroke-width="1.5" d="M7.28451 10.3333C7.10026 10.8546 7 11.4156 7 12 7 14.7614 9.23858 17 12 17 14.7614 17 17 14.7614 17 12 17 9.23858 14.7614 7 12 7 11.4156 7 10.8546 7.10026 10.3333 7.28451M12 2V4M12 20V22M4 12L2 12M22 12L20 12M19.7778 4.22266L17.5558 6.25424M4.22217 4.22266L6.44418 6.25424M6.44434 17.5557L4.22211 19.7779M19.7778 19.7773L17.5558 17.5551" class="colorStroke1C274C svgStroke"></path></svg></g></svg>